<svg width="62" height="61" viewBox="0 0 62 61" fill="none" xmlns="http://www.w3.org/2000/svg">
<path fill-rule="evenodd" clip-rule="evenodd" d="M62 30.2436V30.2436C62 29.9799 61.8958 29.7268 61.7101 29.5395V29.5395L58.29 26.0907C58.1043 25.9034 58.0001 25.6503 58.0001 25.3865L58.0001 18.143V18.143C58.0001 17.8792 57.8959 17.6261 57.7102 17.4389V17.4389L55.2901 14.9984C55.1043 14.8111 55.0001 14.558 55.0001 14.2942L55.0001 8.05882V8.05882C55.0001 7.50654 54.5524 7.05882 54.0001 7.05882V7.05882L47.8335 7.05882C47.5668 7.05882 47.3112 6.95231 47.1234 6.76296L44.7104 4.32964V4.32964C44.5226 4.14029 44.267 4.03377 44.0003 4.03377V4.03377L37.334 4.03377C37.0673 4.03377 36.8117 3.92726 36.6239 3.73791L33.2106 0.295878V0.295878C33.0229 0.106525 32.7672 1.3981e-05 32.5006 1.39693e-05V1.39693e-05L9.50104 1.29639e-05C8.94875 1.29398e-05 8.50104 0.447728 8.50104 1.00001V1.00001C8.50104 1.5523 8.94876 2.00001 9.50104 2.00001L31.6672 2.00001C31.9339 2.00001 32.1895 2.10653 32.3773 2.29588L32.4108 2.32964C33.0367 2.9608 32.5896 4.03377 31.7007 4.03377L1.00122 4.03377C0.448933 4.03377 0.00121777 4.48149 0.00121774 5.03377V5.03377C0.00121772 5.58606 0.448934 6.03377 1.00122 6.03377L25.2361 6.03377C25.6584 6.03377 26.0007 6.37611 26.0007 6.7984V6.7984C26.0007 7.22068 25.6584 7.56302 25.2361 7.56302L19.0009 7.56302C18.4486 7.56302 18.0009 8.01073 18.0009 8.56302V8.56302C18.0009 9.1153 18.4486 9.56302 19.0009 9.56302L32.6672 9.56302C32.9339 9.56302 33.1895 9.66953 33.3773 9.85888L37.2904 13.805V13.805C37.4782 13.9943 37.7338 14.1008 38.0005 14.1008V14.1008L40.7909 14.1008C40.868 14.1008 40.9064 14.1942 40.8517 14.2485V14.2485C40.8178 14.2821 40.8176 14.3367 40.8511 14.3706L48.2289 21.8105C48.2628 21.8446 48.3179 21.8449 48.352 21.811V21.811C48.4069 21.7566 48.5002 21.7955 48.5002 21.8728L48.5002 25.2016V25.2016C48.5002 25.4654 48.6044 25.7185 48.7902 25.9058V25.9058L52.2102 29.3546C52.396 29.5419 52.5002 29.795 52.5002 30.0588L52.5002 43.8655C52.5002 44.4177 52.9479 44.8655 53.5002 44.8655V44.8655C54.0524 44.8655 54.5002 44.4177 54.5002 43.8655L54.5002 37.0432C54.5002 36.629 54.8359 36.2932 55.2501 36.2932V36.2932C55.6643 36.2932 56.0001 36.629 56.0001 37.0432L56.0001 60C56.0001 60.5523 56.4478 61 57.0001 61V61C57.5524 61 58.0001 60.5523 58.0001 60L58.0001 31.0671C58.0001 30.1743 59.0814 29.729 59.7101 30.363V30.363C59.8958 30.5503 60 30.8034 60 31.0671L60 53.4453C60 53.9975 60.4477 54.4453 61 54.4453V54.4453C61.5523 54.4453 62 53.9975 62 53.4453L62 30.2436ZM33.0006 7.06302C33.0006 7.33916 33.2244 7.56302 33.5006 7.56302V7.56302V7.56302C33.7672 7.56302 34.0228 7.66953 34.2106 7.85888V7.85888L38.1237 11.805C38.3115 11.9943 38.5671 12.1008 38.8338 12.1008L47.0003 12.1008V12.1008C47.267 12.1008 47.5226 12.2073 47.7104 12.3967V12.3967L50.2103 14.9177V14.9177C50.396 15.105 50.5002 15.3581 50.5002 15.6218V15.6218L50.5002 24.3781C50.5002 24.6419 50.6044 24.895 50.7902 25.0823L54.2102 28.5311V28.5311C54.3959 28.7184 54.5002 28.9715 54.5002 29.2352V29.2352V29.2352C54.5002 29.2353 54.5002 29.2354 54.5003 29.2354L55.2501 29.2354C55.6643 29.2354 56.0001 28.8996 56.0001 28.4854L56.0001 27.0336C56.0001 26.7698 55.8959 26.5167 55.7102 26.3294L53.2901 23.889V23.889C53.1043 23.7017 53.0001 23.4486 53.0001 23.1848V23.1848L53.0001 15.9413C53.0001 15.6775 52.8959 15.4244 52.7102 15.2372L46.8769 9.35469C46.6891 9.16533 46.4335 9.05882 46.1668 9.05882L39.5004 9.05882V9.05882C39.2338 9.05882 38.9781 8.95231 38.7904 8.76296V8.76296L36.3774 6.32964C36.1896 6.14029 35.934 6.03377 35.6673 6.03377L33.7652 6.03377C33.3429 6.03377 33.0006 6.37611 33.0006 6.7984L33.0006 7.06302ZM55.1451 22.9193C55.4595 23.2363 56.0001 23.0136 56.0001 22.5672L56.0001 18.7606C56.0001 18.6287 55.948 18.5022 55.8551 18.4086V18.4086C55.5408 18.0916 55.0001 18.3142 55.0001 18.7606L55.0001 22.5672C55.0001 22.6991 55.0522 22.8256 55.1451 22.9193V22.9193ZM51.2901 10.9647C51.9188 11.5987 53.0001 11.1535 53.0001 10.2606L53.0001 10.0588C53.0001 9.50654 52.5524 9.05882 52.0001 9.05882L51.8001 9.05882C50.9112 9.05882 50.4641 10.1318 51.09 10.763L51.2901 10.9647ZM43.3701 7.05882C43.8257 7.05882 44.0548 6.5089 43.734 6.18541V6.18541C43.6378 6.08836 43.5068 6.03377 43.3701 6.03377L40.1306 6.03377C39.6751 6.03377 39.4459 6.5837 39.7667 6.90718V6.90718C39.863 7.00423 39.994 7.05882 40.1306 7.05882L43.3701 7.05882ZM46.7902 17.5193C47.4189 18.1533 48.5002 17.7081 48.5002 16.8151L48.5002 16.4453C48.5002 16.1816 48.396 15.9285 48.2103 15.7412L46.877 14.3967C46.6892 14.2073 46.4336 14.1008 46.1669 14.1008L45.8002 14.1008C44.9114 14.1008 44.4643 15.1738 45.0902 15.805L46.7902 17.5193Z" fill="url(#paint0_linear_14_62)"/>
<defs>
<linearGradient id="paint0_linear_14_62" x1="31.0006" y1="1.39037e-05" x2="31.0006" y2="61" gradientUnits="userSpaceOnUse">
<stop stop-color="#E9BF6D"/>
<stop offset="1" stop-color="#C28B1F"/>
</linearGradient>
</defs>
</svg>
