<svg width="62" height="61" viewBox="0 0 62 61" fill="none" xmlns="http://www.w3.org/2000/svg">
<path fill-rule="evenodd" clip-rule="evenodd" d="M0.00769175 30.2436V30.2436C0.00769174 29.9799 0.111901 29.7268 0.297626 29.5395V29.5395L3.71769 26.0906C3.90342 25.9033 4.00763 25.6503 4.00763 25.3865L4.00763 18.143V18.143C4.00763 17.8792 4.11184 17.6261 4.29756 17.4388V17.4388L6.71762 14.9984C6.90334 14.8111 7.00755 14.558 7.00755 14.2943L7.00755 8.05881V8.05881C7.00755 7.50652 7.45527 7.05881 8.00755 7.05881V7.05881L14.1742 7.05881C14.4409 7.05881 14.6965 6.95229 14.8843 6.76294L17.2973 4.32962V4.32962C17.4851 4.14027 17.7407 4.03376 18.0074 4.03376V4.03376L24.6737 4.03376C24.9404 4.03376 25.196 3.92725 25.3838 3.73789L28.7971 0.295863V0.295863C28.9848 0.10651 29.2405 -1.2778e-06 29.5071 -1.28946e-06V-1.28946e-06L52.5067 -2.2948e-06C53.0589 -2.31894e-06 53.5067 0.447713 53.5067 0.999998V0.999998C53.5067 1.55228 53.0589 2 52.5067 2L30.3405 2C30.0738 2 29.8182 2.10651 29.6304 2.29586L29.5969 2.32962C28.971 2.96079 29.4181 4.03376 30.307 4.03376L61.0065 4.03376C61.5588 4.03376 62.0065 4.48147 62.0065 5.03376V5.03376C62.0065 5.58604 61.5588 6.03376 61.0065 6.03376L36.7716 6.03376C36.3493 6.03376 36.007 6.37609 36.007 6.79838V6.79838C36.007 7.22067 36.3493 7.563 36.7716 7.563L43.0068 7.563C43.5591 7.563 44.0068 8.01072 44.0068 8.563V8.563C44.0068 9.11529 43.5591 9.563 43.0068 9.563L29.3405 9.563C29.0738 9.563 28.8182 9.66951 28.6304 9.85887L24.7173 13.8049V13.8049C24.5295 13.9943 24.2739 14.1008 24.0072 14.1008V14.1008L21.2168 14.1008C21.1397 14.1008 21.1013 14.1942 21.156 14.2485V14.2485C21.1899 14.282 21.1901 14.3367 21.1565 14.3706L13.7788 21.8105C13.7449 21.8446 13.6898 21.8448 13.6557 21.811V21.811C13.6008 21.7566 13.5075 21.7954 13.5075 21.8728L13.5075 25.2016V25.2016C13.5075 25.4654 13.4032 25.7185 13.2175 25.9058V25.9058L9.79747 29.3546C9.61174 29.5419 9.50753 29.795 9.50753 30.0587L9.50753 43.8654C9.50753 44.4177 9.05982 44.8654 8.50753 44.8654V44.8654C7.95525 44.8654 7.50753 44.4177 7.50753 43.8654L7.50753 37.0432C7.50753 36.629 7.17177 36.2932 6.75758 36.2932V36.2932C6.34339 36.2932 6.00763 36.629 6.00763 37.0432L6.00763 60C6.00763 60.5523 5.55992 61 5.00763 61V61C4.45535 61 4.00763 60.5523 4.00763 60L4.00763 31.0671C4.00763 30.1742 2.92634 29.729 2.29762 30.363V30.363C2.1119 30.5503 2.00769 30.8034 2.00769 31.0671L2.00769 53.4452C2.00769 53.9975 1.55998 54.4452 1.00769 54.4452V54.4452C0.455408 54.4452 0.00769279 53.9975 0.00769277 53.4452L0.00769175 30.2436ZM29.0071 7.06301C29.0071 7.33915 28.7833 7.563 28.5071 7.563V7.563V7.563C28.2405 7.563 27.9848 7.66951 27.7971 7.85887V7.85887L23.8839 11.8049C23.6962 11.9943 23.4406 12.1008 23.1739 12.1008L15.0074 12.1008V12.1008C14.7407 12.1008 14.4851 12.2073 14.2973 12.3967V12.3967L11.7974 14.9177V14.9177C11.6117 15.105 11.5075 15.358 11.5075 15.6218V15.6218L11.5075 24.3781C11.5075 24.6419 11.4032 24.8949 11.2175 25.0822L7.79747 28.5311V28.5311C7.61174 28.7184 7.50753 28.9715 7.50753 29.2352V29.2352V29.2352C7.50753 29.2353 7.50747 29.2354 7.50739 29.2354L6.75758 29.2354C6.34339 29.2354 6.00763 28.8996 6.00763 28.4854L6.00763 27.0335C6.00763 26.7698 6.11184 26.5167 6.29756 26.3294L8.71762 23.889V23.889C8.90334 23.7017 9.00755 23.4486 9.00755 23.1848V23.1848L9.00755 15.9413C9.00755 15.6775 9.11176 15.4245 9.29749 15.2372L15.1309 9.35467C15.3186 9.16532 15.5743 9.05881 15.8409 9.05881L22.5073 9.05881V9.05881C22.7739 9.05881 23.0296 8.95229 23.2173 8.76294V8.76294L25.6303 6.32962C25.8181 6.14027 26.0737 6.03376 26.3404 6.03376L28.2425 6.03376C28.6648 6.03376 29.0071 6.37609 29.0071 6.79838L29.0071 7.06301ZM6.8626 22.9192C6.54825 23.2362 6.00763 23.0136 6.00763 22.5672L6.00763 18.7606C6.00763 18.6287 6.05973 18.5022 6.15259 18.4086V18.4086C6.46693 18.0916 7.00755 18.3142 7.00755 18.7606L7.00755 22.5672C7.00755 22.6991 6.95545 22.8256 6.8626 22.9192V22.9192ZM10.7176 10.9647C10.0889 11.5988 9.00755 11.1535 9.00755 10.2606L9.00755 10.0588C9.00755 9.50652 9.45527 9.05881 10.0076 9.05881L10.2076 9.05881C11.0965 9.05881 11.5436 10.1318 10.9177 10.7629L10.7176 10.9647ZM18.6376 7.05881C18.182 7.05881 17.9529 6.50888 18.2737 6.1854V6.1854C18.3699 6.08835 18.5009 6.03376 18.6376 6.03376L21.877 6.03376C22.3326 6.03376 22.5618 6.58368 22.241 6.90717V6.90717C22.1447 7.00422 22.0137 7.05881 21.877 7.05881L18.6376 7.05881ZM15.2175 17.5193C14.5888 18.1533 13.5075 17.708 13.5075 16.8151L13.5075 16.4453C13.5075 16.1816 13.6117 15.9285 13.7974 15.7412L15.1307 14.3967C15.3185 14.2073 15.5741 14.1008 15.8407 14.1008L16.2074 14.1008C17.0963 14.1008 17.5434 15.1738 16.9175 15.8049L15.2175 17.5193Z" fill="url(#paint0_linear_14_70)"/>
<defs>
<linearGradient id="paint0_linear_14_70" x1="31.0071" y1="-1.35503e-06" x2="31.0071" y2="61" gradientUnits="userSpaceOnUse">
<stop stop-color="#E9BF6D"/>
<stop offset="1" stop-color="#C28B1F"/>
</linearGradient>
</defs>
</svg>
